# xmcd CD database file
#
# Track frame offsets:
#	182
#	17817
#	35887
#	63555
#	86367
#	101427
#	113272
#	126065
#	151025
#	167480
#	188197
#	201327
#
# Disc length: 2863 seconds
#
# Revision: 0
# Processed by: cddbd v1.5.2PL0 Copyright (c) Steve Scherf et al.
# Submitted via: CDex 1.51
#
DISCID=910b2d0c
DTITLE=Friedemann Graef, Albrecht Riermeier - Parabel - Irre - Parabel
DYEAR=1990
DGENRE=Jazz
TTITLE0=Hydrophonobirond
TTITLE1=Sound Of Five
TTITLE2=No Fish Today
TTITLE3=No Rehearse Today
TTITLE4=Smiling Mackie
TTITLE5=Parabel
TTITLE6=Teacher, Don't Turn Your Back
TTITLE7=Smell Of Fire
TTITLE8=Ein weißer Elefant fliegt in sein Heimatland
TTITLE9=Ein Amerikaner in München
TTITLE10=It Don't Mean A Thing If It Ain't Got That Swing
TTITLE11=Sunrise
EXTD=YEAR: 1990
EXTT0=
EXTT1=
EXTT2=
EXTT3=
EXTT4=
EXTT5=
EXTT6=
EXTT7=
EXTT8=
EXTT9=
EXTT10=
EXTT11=
PLAYORDER=
